<?xml version="1.0" encoding="UTF-8" standalone="no"?>
<!-- Created with Inkscape (http://www.inkscape.org/) -->

<svg
   xmlns:dc="http://purl.org/dc/elements/1.1/"
   xmlns:cc="http://creativecommons.org/ns#"
   xmlns:rdf="http://www.w3.org/1999/02/22-rdf-syntax-ns#"
   xmlns:svg="http://www.w3.org/2000/svg"
   xmlns="http://www.w3.org/2000/svg"
   xmlns:sodipodi="http://sodipodi.sourceforge.net/DTD/sodipodi-0.dtd"
   xmlns:inkscape="http://www.inkscape.org/namespaces/inkscape"
   width="256"
   height="256"
   viewBox="0 0 67.733332 67.733335"
   version="1.1"
   id="svg8"
   inkscape:version="0.92.5 (2060ec1f9f, 2020-04-08)"
   sodipodi:docname="User.svg">
  <defs
     id="defs2" />
  <sodipodi:namedview
     id="base"
     pagecolor="#ffffff"
     bordercolor="#666666"
     borderopacity="1.0"
     inkscape:pageopacity="0.0"
     inkscape:pageshadow="2"
     inkscape:zoom="0.98994949"
     inkscape:cx="207.75809"
     inkscape:cy="72.901928"
     inkscape:document-units="px"
     inkscape:current-layer="layer1"
     showgrid="false"
     units="px"
     inkscape:window-width="1366"
     inkscape:window-height="740"
     inkscape:window-x="1366"
     inkscape:window-y="0"
     inkscape:window-maximized="1" />
  <metadata
     id="metadata5">
    <rdf:RDF>
      <cc:Work
         rdf:about="">
        <dc:format>image/svg+xml</dc:format>
        <dc:type
           rdf:resource="http://purl.org/dc/dcmitype/StillImage" />
        <dc:title></dc:title>
      </cc:Work>
    </rdf:RDF>
  </metadata>
  <g
     inkscape:label="Capa 1"
     inkscape:groupmode="layer"
     id="layer1"
     transform="translate(0,-229.26666)">
    <rect
       style="fill:#008080;fill-opacity:1;stroke:none;stroke-width:0.26458332"
       id="rect815"
       width="67.73333"
       height="67.73333"
       x="0.13363469"
       y="229.3808" />
    <path
       inkscape:connector-curvature="0"
       id="path2295"
       d="m 34.277239,294.59803 c -0.514326,-0.37622 -0.482048,-1.41735 0.06187,-1.99635 0.431215,-0.45889 0.434109,-0.51895 0.434109,-8.99801 0,-4.69479 -0.05461,-8.67827 -0.121381,-8.85221 -0.06676,-0.17383 -0.900732,-0.78134 -1.853293,-1.34981 -2.565406,-1.53088 -2.433177,-1.3413 -2.433177,-3.48787 v -1.85337 l 1.65294,-0.59355 c 0.909114,-0.32663 1.971951,-0.70679 2.361861,-0.84529 0.702617,-0.2493 1.46419,-0.0501 5.151495,1.34879 0.175432,0.0668 0.250456,0.64943 0.250456,1.94592 0,2.14371 0.131982,1.95465 -2.433177,3.48537 -0.952561,0.56847 -1.786546,1.17589 -1.853294,1.34981 -0.06676,0.17384 -0.121382,4.15742 -0.121382,8.85221 0,8.47906 0.003,8.53898 0.434105,8.99801 0.843457,0.89781 0.399569,2.26857 -0.73464,2.26857 -0.23337,0 -0.591803,-0.12265 -0.796524,-0.27253 z m 1.180851,-0.2499 c 0.425877,-0.16353 0.416886,-1.19966 -0.01176,-1.36416 -0.599629,-0.23024 -1.073732,0.0709 -1.073732,0.68113 0,0.68201 0.412257,0.94143 1.085571,0.68303 z m -4.24669,-3.99702 c -0.580345,-0.40654 -0.604487,-1.48552 -0.04456,-1.99223 0.383292,-0.34684 0.400712,-0.6171 0.400712,-6.21457 v -5.85193 l -2.412343,-2.18139 c -1.326781,-1.19968 -2.457533,-2.36166 -2.512783,-2.58201 -0.05525,-0.22039 -0.07416,-1.34745 -0.04204,-2.50449 0.04751,-1.71047 0.114616,-2.10371 0.358954,-2.10371 0.246707,0 0.310611,0.41755 0.35679,2.33225 l 0.05626,2.33221 2.398105,2.1698 2.398107,2.16981 v 5.92762 5.92768 l 0.500888,0.67892 c 0.605535,0.82076 0.630642,1.27273 0.100181,1.80321 -0.48138,0.48132 -0.958946,0.50858 -1.558268,0.089 z m 1.243418,-0.40378 c 0.607215,-0.60722 0.160185,-1.37891 -0.725997,-1.25328 -0.595762,0.0845 -0.753061,0.93292 -0.242213,1.30646 0.459979,0.33623 0.58558,0.32938 0.968199,-0.0534 z m 4.923039,0.31467 c -0.530463,-0.53052 -0.505355,-0.98244 0.100182,-1.80324 l 0.500889,-0.67888 v -5.92766 -5.92766 l 2.398106,-2.16978 2.3981,-2.16978 0.05626,-2.33222 c 0.04621,-1.91461 0.110093,-2.3323 0.35679,-2.3323 0.244354,0 0.311452,0.39323 0.358953,2.10375 0.03216,1.15703 0.01302,2.28409 -0.04204,2.50447 -0.05526,0.22042 -1.185998,1.38231 -2.51278,2.58203 l -2.412337,2.18137 v 5.85195 c 0,5.59746 0.01736,5.86766 0.400715,6.21453 0.55991,0.50672 0.535761,1.5857 -0.04456,1.99222 -0.599322,0.41988 -1.076892,0.39233 -1.558267,-0.0892 z m 1.283048,-0.2618 c 0.510858,-0.37349 0.353562,-1.22206 -0.242209,-1.30648 -0.886189,-0.12536 -1.333213,0.64603 -0.726002,1.25327 0.382628,0.38265 0.508221,0.38952 0.968204,0.0533 z m -10.900143,-3.94583 c -0.220402,-0.22041 -0.400713,-0.61231 -0.400713,-0.87096 0,-0.25852 0.180317,-0.67816 0.400713,-0.93228 0.367066,-0.42304 0.400714,-0.74959 0.400738,-3.88752 l 3.3e-5,-3.42544 -2.511092,-2.4043 -2.511096,-2.40429 0.05669,-4.50799 c 0.04841,-3.84837 0.100686,-4.50802 0.357237,-4.50802 0.256473,0 0.308432,0.65061 0.354405,4.43762 l 0.05386,4.43761 2.500678,2.4014 2.500672,2.40138 v 3.44775 c 0,3.14437 0.03524,3.49254 0.400714,3.95715 0.538828,0.685 0.518974,1.55196 -0.04455,1.9467 -0.599319,0.41983 -1.076888,0.39273 -1.558265,-0.0888 z m 1.293565,-0.26924 c 0.528331,-0.38633 0.275675,-1.33353 -0.355711,-1.33353 -0.857707,0 -1.201097,0.70992 -0.623008,1.28799 0.384162,0.38402 0.507691,0.39 0.978719,0.0459 z m 11.774168,0.35832 c -0.563556,-0.39463 -0.583411,-1.26172 -0.04456,-1.9467 0.365455,-0.46459 0.400715,-0.81278 0.400715,-3.95716 v -3.44772 l 2.500671,-2.40143 2.500675,-2.40138 0.05386,-4.43762 c 0.04598,-3.78703 0.09792,-4.43761 0.354399,-4.43761 0.256561,0 0.308833,0.65963 0.357237,4.50804 l 0.05669,4.50798 -2.51109,2.4043 -2.511093,2.40426 2.8e-5,3.42547 c 3.1e-5,3.13789 0.03368,3.46428 0.400742,3.88754 0.220405,0.25404 0.400717,0.67366 0.400717,0.93228 0,0.5552 -0.652124,1.27162 -1.157555,1.27162 -0.195891,0 -0.556519,-0.14055 -0.801428,-0.31187 z m 1.243422,-0.4038 c 0.57809,-0.57806 0.234701,-1.28802 -0.623013,-1.28802 -0.631383,0 -0.884038,0.94721 -0.355705,1.33354 0.471027,0.34451 0.594553,0.33856 0.97872,-0.0459 z m -17.917565,-4.43237 c -0.841821,-0.30088 -1.033559,-1.31502 -0.400714,-2.11957 0.247309,-0.3142 0.400714,-0.81277 0.400714,-1.30186 0,-0.75087 -0.115833,-0.90022 -2.205968,-2.84378 l -2.205965,-2.0514 0.05216,-8.94558 c 0.03403,-5.83758 0.121741,-8.92824 0.252491,-8.89555 0.128823,0.032 0.216758,3.14394 0.246305,8.71547 l 0.04595,8.66551 2.308236,2.20812 c 2.247286,2.14982 2.308235,2.23098 2.308235,3.0739 0,0.5624 0.140405,1.04429 0.400715,1.37517 0.408371,0.51917 0.512144,1.18092 0.247373,1.57746 -0.137349,0.20573 -0.944877,0.70058 -1.085718,0.66535 -0.03477,-0.009 -0.19849,-0.0644 -0.363796,-0.12282 z m 0.9938,-0.75295 c 0.560642,-0.67553 -0.392409,-1.5492 -1.11421,-1.02138 -0.510418,0.37345 -0.224018,1.31232 0.400227,1.31232 0.259896,0 0.581192,-0.13117 0.713983,-0.29072 z m 19.943421,0.65094 c -0.818117,-0.46058 -0.930706,-1.21641 -0.300538,-2.01756 0.260287,-0.33071 0.400713,-0.81277 0.400713,-1.37517 0,-0.84292 0.06095,-0.92408 2.308237,-3.0739 l 2.30824,-2.20812 0.04596,-8.66551 c 0.02948,-5.57153 0.117491,-8.68331 0.246318,-8.71547 0.13075,-0.032 0.218471,3.05797 0.252482,8.89555 l 0.05215,8.94558 -2.205974,2.0514 c -2.090144,1.94356 -2.205969,2.09291 -2.205969,2.84378 0,0.48909 0.153385,0.9875 0.400715,1.30186 0.220405,0.2803 0.400713,0.70545 0.400713,0.94502 0,0.89705 -0.950971,1.49593 -1.703028,1.07254 z m 1.227863,-0.89207 c 0.240718,-0.95916 -1.139333,-1.37989 -1.438136,-0.43866 -0.160906,0.50694 0.236546,0.97053 0.832058,0.97053 0.344331,0 0.508769,-0.14417 0.606078,-0.53205 z M 11.843803,268.9797 c -0.171547,-0.24481 -0.311892,-0.60553 -0.311892,-0.80143 0,-0.58792 0.734178,-1.15757 1.491858,-1.15757 0.563991,0 0.964125,-0.23974 2.184885,-1.30856 0.82195,-0.71971 1.548098,-1.44836 1.613661,-1.61924 0.06556,-0.17112 0.119226,-3.30635 0.119226,-6.96767 v -6.65708 l 1.144159,-0.83993 c 0.629289,-0.46193 1.260412,-0.83987 1.402493,-0.83987 0.522842,0 0.20159,0.52195 -0.808441,1.31358 l -1.036964,0.81272 -0.05269,6.82404 -0.05269,6.82404 -1.449982,1.25968 c -1.88134,1.63452 -2.151233,1.94922 -2.151233,2.50851 0,1.05341 -1.486208,1.51418 -2.092379,0.64878 z m 1.613649,-0.47328 c 0.16473,-0.65637 -0.305213,-1.18113 -0.89117,-0.99517 -0.910147,0.28894 -0.676596,1.51303 0.288659,1.51303 0.341073,0 0.508701,-0.14416 0.602511,-0.51786 z m 43.068735,0.60369 c -0.173171,-0.17293 -0.314843,-0.52381 -0.314843,-0.77919 0,-0.55929 -0.269878,-0.87399 -2.151233,-2.50851 l -1.449986,-1.25968 -0.05267,-6.82404 -0.05267,-6.82404 -1.036963,-0.81272 c -1.010023,-0.79163 -1.331279,-1.31358 -0.80844,-1.31358 0.14211,0 0.773201,0.37805 1.402488,0.83987 l 1.14416,0.83993 v 6.65708 c 0,3.66132 0.05363,6.79682 0.119194,6.96767 0.06556,0.17095 0.79171,0.89953 1.613661,1.61924 1.220762,1.06892 1.620894,1.30856 2.184884,1.30856 0.75768,0 1.491858,0.56965 1.491858,1.15757 0,1.04375 -1.367597,1.65372 -2.089432,0.93184 z m 1.480383,-0.37666 c 0.57375,-0.69134 -0.507254,-1.68396 -1.142297,-1.04894 -0.458259,0.4584 -0.176444,1.33988 0.428307,1.33988 0.259901,0 0.581192,-0.13116 0.713983,-0.29072 z m -30.896965,-4.23529 c -1.404998,-1.27557 -2.55454,-2.44225 -2.55454,-2.59259 0,-0.15069 0.540961,-1.1321 1.202137,-2.18156 0.661174,-1.04948 1.202134,-2.03843 1.202134,-2.19769 0,-0.15937 -1.149542,-1.12128 -2.55454,-2.1379 -1.404997,-1.0166 -2.585087,-1.87358 -2.622426,-1.90449 -0.07379,-0.0612 -0.215387,-0.66404 -0.927945,-3.95167 l -0.468429,-2.1613 0.479817,-0.5702 c 0.263902,-0.31375 1.297791,-1.31698 2.297535,-2.2297 l 1.817715,-1.65941 4.952773,2.13691 c 2.724027,1.17534 5.036993,2.13696 5.139928,2.13696 0.102934,0 2.415892,-0.96162 5.139925,-2.13696 l 4.952771,-2.13691 1.817716,1.65941 c 0.999746,0.91272 2.033631,1.91612 2.297539,2.2297 l 0.47982,0.5702 -0.468432,2.1613 c -0.712547,3.28763 -0.854142,3.89065 -0.92795,3.95167 -0.03735,0.032 -1.217426,0.88789 -2.622425,1.90449 -1.404998,1.01662 -2.554537,1.97866 -2.554537,2.1379 0,0.15937 0.540958,1.14821 1.202135,2.19769 0.661172,1.04946 1.202133,2.03212 1.202133,2.18362 0,0.24482 -4.770774,4.72934 -5.179253,4.86831 -0.08998,0.032 -1.147862,-0.29636 -2.350821,-0.72661 -2.888566,-1.03316 -2.90424,-1.18887 -0.333906,-3.31628 1.024559,-0.84803 1.853297,-1.68802 1.853297,-1.87852 0,-0.18971 -0.362934,-1.17214 -0.806521,-2.18356 l -0.806515,-1.839 0.780243,-1.68884 0.780243,-1.68883 1.178324,-0.13314 c 1.660934,-0.18795 3.007771,-0.88395 4.233754,-2.18779 1.043572,-1.1098 1.211714,-1.42091 0.879124,-1.62645 -0.229875,-0.14236 -6.658747,2.01619 -6.961185,2.33692 -0.129937,0.13784 -0.700703,1.33255 -1.268319,2.65491 l -1.032027,2.40424 0.78696,1.80325 c 0.432834,0.99175 0.747017,1.87082 0.698191,1.95345 -0.04882,0.0828 -1.385453,0.15032 -2.970287,0.15032 -1.584835,0 -2.921463,-0.0676 -2.970289,-0.15032 -0.04882,-0.0828 0.265358,-0.9617 0.698189,-1.95345 l 0.786965,-1.80325 -1.032029,-2.40424 c -0.567613,-1.32236 -1.138357,-2.51707 -1.268314,-2.65491 -0.302439,-0.32064 -6.73131,-2.47901 -6.961189,-2.33692 -0.33259,0.20529 -0.164435,0.51665 0.879126,1.62645 1.225983,1.30384 2.572821,1.99984 4.233755,2.18779 l 1.17832,0.13314 0.780244,1.68883 0.780242,1.68884 -0.806516,1.839 c -0.443584,1.01142 -0.806517,1.99404 -0.806517,2.18356 0,0.19055 0.828736,1.03049 1.853295,1.87852 2.555944,2.11554 2.543141,2.28419 -0.250448,3.29933 -1.157058,0.42029 -2.1939,0.76902 -2.304097,0.77474 -0.110186,0.007 -1.349898,-1.03333 -2.754893,-2.30896 z M 9.8599377,263.24837 c -0.770728,-0.85167 -0.154009,-2.03785 1.0594763,-2.03785 0.503633,0 0.934529,-0.23947 1.834329,-1.01889 l 1.176064,-1.01885 0.05327,-5.43743 0.05327,-5.43739 2.804989,-2.05646 c 1.542741,-1.13103 2.879365,-2.03273 2.970277,-2.00377 0.463025,0.14742 0.0093,0.6051 -2.338433,2.35848 -1.410388,1.05333 -2.64657,2.04509 -2.747075,2.20393 -0.10051,0.15919 -0.184104,2.63948 -0.18581,5.51256 l -0.0029,5.22375 -1.302314,1.15051 c -1.014743,0.8964 -1.302315,1.27344 -1.302315,1.70753 0,1.07329 -1.365163,1.63572 -2.0726873,0.85388 z m 1.4636303,-0.32523 c 0.532238,-0.64131 -0.24949,-1.62645 -0.943706,-1.18929 -0.6936963,0.43686 -0.4465593,1.4802 0.350623,1.4802 0.193409,0 0.460291,-0.13114 0.593083,-0.29069 z m 47.222924,0.32523 c -0.182364,-0.20162 -0.331567,-0.60144 -0.331567,-0.8887 0,-0.39135 -0.32679,-0.81095 -1.302312,-1.67271 l -1.302318,-1.15051 -0.003,-5.22375 c -0.0015,-2.87308 -0.08531,-5.35373 -0.18579,-5.51256 -0.100509,-0.15918 -1.336688,-1.1506 -2.747075,-2.20393 -2.347777,-1.75338 -2.801451,-2.21093 -2.338432,-2.35848 0.09094,-0.0269 1.427535,0.87274 2.970276,2.00377 l 2.804989,2.05646 0.05329,5.43739 0.05329,5.43743 1.176066,1.01885 c 0.925624,0.80188 1.323657,1.01889 1.869141,1.01889 0.808715,0 1.356255,0.49936 1.356255,1.23692 0,1.02609 -1.384693,1.56111 -2.07269,0.80093 z m 1.463629,-0.32523 c 0.532241,-0.64131 -0.249475,-1.62645 -0.943706,-1.18929 -0.693697,0.43686 -0.446544,1.4802 0.350631,1.4802 0.193399,0 0.460295,-0.13114 0.593081,-0.29069 z M 12.578273,245.67143 c -0.513221,-0.35967 -0.592063,-1.214 -0.16578,-1.79699 0.200638,-0.27432 0.498499,-0.37344 1.055652,-0.35139 0.675563,0.027 1.058147,-0.1751 2.952093,-1.55947 l 2.175946,-1.59036 h 3.972128 3.972132 l 1.010875,1.24931 c 0.555983,0.68712 1.010877,1.41292 1.010877,1.61282 0,0.52973 -0.417775,0.22935 -1.401844,-1.00886 l -0.836172,-1.05172 h -3.847903 -3.847905 l -2.04556,1.51035 c -1.514825,1.1185 -2.046355,1.62536 -2.048625,1.95349 -0.0036,0.55558 -0.179558,0.82192 -0.735098,1.11439 -0.568861,0.29946 -0.688296,0.29128 -1.220816,-0.082 z m 1.37185,-0.60649 c 0.378472,-0.45615 -0.01592,-0.98501 -0.734276,-0.98501 -0.592101,0 -0.836847,0.40976 -0.605209,1.01347 0.148269,0.38635 1.010393,0.36796 1.339485,-0.0269 z m 42.361396,0.67899 c -0.52526,-0.29756 -0.694444,-0.5657 -0.698177,-1.10532 -0.0022,-0.328 -0.533799,-0.83499 -2.048624,-1.95349 l -2.045566,-1.51035 h -3.8479 -3.847906 l -0.836165,1.05189 c -0.984064,1.23793 -1.401842,1.53858 -1.401842,1.00883 0,-0.19989 0.454895,-0.9257 1.010878,-1.61279 l 1.010875,-1.24937 h 3.972134 3.972126 l 2.175943,1.59039 c 1.893952,1.38432 2.276539,1.58636 2.952099,1.55949 0.557154,-0.0239 0.855014,0.0772 1.055652,0.3514 0.426287,0.58294 0.347416,1.43746 -0.165774,1.79699 -0.523684,0.36654 -0.718865,0.37803 -1.257734,0.0725 z m 1.202137,-1.06293 c 0,-0.52922 -0.06919,-0.60107 -0.579229,-0.60107 -0.728732,0 -1.115775,0.52865 -0.728617,0.99513 0.156041,0.18817 0.492326,0.30178 0.789807,0.26746 0.428631,-0.0501 0.518039,-0.16406 0.518039,-0.66129 z m -25.769279,-1.8533 c -0.388243,-0.4134 -1.461474,-1.65293 -2.384962,-2.75493 -0.923483,-1.1019 -1.773668,-2.06977 -1.889301,-2.15073 -0.115635,-0.0812 -2.359759,-0.14834 -4.986947,-0.14997 l -4.7767,-0.002 -1.184008,0.83054 c -0.938213,0.65813 -1.226995,0.99016 -1.391059,1.59946 -0.312761,1.16147 -1.247634,1.52471 -1.996637,0.77571 -0.892416,-0.89239 -0.336592,-2.03092 1.015173,-2.07944 0.702266,-0.0239 1.127592,-0.20942 2.031699,-0.87958 l 1.143495,-0.84771 h 5.212954 5.212962 l 0.588762,0.65112 c 1.711693,1.89304 4.429858,5.26521 4.429858,5.4956 0,0.43824 -0.28225,0.30411 -1.025289,-0.48667 z m -17.321611,-2.16815 c 0.570918,-0.57093 0.300018,-1.28798 -0.486579,-1.28798 -0.503725,0 -0.801424,0.29859 -0.801424,0.80351 0,0.22102 0.579894,0.79932 0.801424,0.79932 0.09445,0 0.313412,-0.14199 0.486579,-0.31466 z m 22.955091,2.65487 c 0,-0.23023 2.718167,-3.60252 4.429861,-5.49565 l 0.588763,-0.65115 h 5.212955 5.212964 l 1.143493,0.84777 c 0.90411,0.67029 1.329432,0.85446 2.031697,0.87961 1.351766,0.0488 1.907595,1.18701 1.015176,2.0794 -0.749005,0.74902 -1.683873,0.38587 -1.99664,-0.77571 -0.164091,-0.60925 -0.452836,-0.9413 -1.391055,-1.59944 l -1.184009,-0.83053 -4.776707,0.002 c -2.627185,10e-4 -4.87131,0.0692 -4.986942,0.15015 -0.115612,0.0811 -0.96582,1.0488 -1.889302,2.15075 -2.769154,3.30434 -3.410254,3.91372 -3.410254,3.24162 z m 19.320061,-2.65487 c 0.570921,-0.57093 0.300012,-1.28798 -0.486574,-1.28798 -0.503724,0 -0.801428,0.29859 -0.801428,0.80351 0,0.22102 0.5799,0.79932 0.801428,0.79932 0.09446,0 0.31342,-0.14199 0.486574,-0.31466 z m -24.5426,-2.89083 -2.671567,-3.0053 h -4.737388 c -4.482934,0 -4.756864,0.0239 -5.100026,0.40055 -0.199439,0.22042 -0.574066,0.40056 -0.832481,0.40056 -1.048654,0 -1.65654,-1.39247 -0.90486,-2.07268 0.490941,-0.44421 1.16328,-0.41802 1.782851,0.0688 0.476568,0.37483 0.8128,0.40057 5.213835,0.40057 h 4.704421 l 0.695422,0.75133 c 0.382482,0.41343 1.561435,1.72055 2.6199,2.90514 1.058466,1.18461 2.025218,2.15385 2.148339,2.15385 0.123117,0 1.089869,-0.96924 2.148332,-2.15385 1.05847,-1.18459 2.23742,-2.4919 2.619902,-2.90514 l 0.695422,-0.75133 h 4.704421 c 4.401044,0 4.737278,-0.0269 5.213844,-0.40057 0.635289,-0.49973 1.383688,-0.51387 1.817656,-0.032 0.445855,0.49266 0.418101,1.14993 -0.06913,1.63717 -0.512164,0.51216 -1.23952,0.51216 -1.703022,0 -0.343161,-0.37897 -0.61709,-0.40058 -5.100036,-0.40058 H 40.66377 l -2.671571,3.00531 c -1.469364,1.65296 -2.782664,3.00534 -2.918443,3.00534 -0.135798,0 -1.449079,-1.35238 -2.918444,-3.00534 z m -12.817503,-2.89551 c 0.532239,-0.64134 -0.24949,-1.62648 -0.943704,-1.18931 -0.693699,0.43685 -0.446559,1.48016 0.350626,1.48016 0.193407,0 0.460293,-0.13114 0.593079,-0.2907 z m 32.658061,0 c 0.532232,-0.64134 -0.249503,-1.62648 -0.943702,-1.18931 -0.693704,0.43685 -0.446557,1.48016 0.350621,1.48016 0.193418,0 0.460288,-0.13114 0.593081,-0.2907 z"
       style="fill:#ffffff;fill-opacity:1;stroke-width:0.20035617"
       inkscape:export-xdpi="247"
       inkscape:export-ydpi="247" />
  </g>
</svg>
